<svg width="158" height="173" viewBox="0 0 158 173" fill="none" xmlns="http://www.w3.org/2000/svg">
<path d="M114.002 31.0717C109.306 31.0717 105.481 27.2476 105.481 22.5509C105.481 17.8542 109.306 14.03 114.002 14.03C118.699 14.03 122.523 17.8542 122.523 22.5509C122.523 27.2476 118.699 31.0717 114.002 31.0717ZM114.002 17.4384C111.184 17.4384 108.89 19.7322 108.89 22.5509C108.89 25.3696 111.184 27.6634 114.002 27.6634C116.821 27.6634 119.115 25.3696 119.115 22.5509C119.115 19.7322 116.821 17.4384 114.002 17.4384Z" fill="white"/>
<path d="M116.718 44.7049H111.282C109.523 44.7049 108.064 43.3858 107.891 41.634L107.458 37.302C106.425 36.8418 105.44 36.2692 104.509 35.5876L100.529 37.3838C98.93 38.1131 97.052 37.503 96.1761 35.9795L93.4597 31.2726C92.5803 29.7491 92.9961 27.8268 94.4208 26.8009L97.928 24.2787C97.8598 23.7504 97.8121 23.1642 97.8121 22.5507C97.8121 21.9372 97.8598 21.3475 97.928 20.8226L94.4208 18.3005C92.9961 17.2746 92.5803 15.3523 93.4597 13.8287L96.1761 9.12183C97.0555 7.59831 98.9232 6.99503 100.529 7.7176L104.509 9.51379C105.44 8.83212 106.425 8.25952 107.458 7.7994L107.891 3.4674C108.064 1.71893 109.523 0.399902 111.282 0.399902H116.718C118.477 0.399902 119.936 1.71893 120.109 3.47081L120.542 7.80281C121.578 8.26293 122.563 8.83894 123.491 9.5172L127.471 7.72101C129.077 7.00185 130.948 7.60512 131.824 9.12524L134.54 13.8322C135.42 15.3557 135.004 17.278 133.579 18.3039L130.072 20.8261C130.14 21.3543 130.188 21.9406 130.188 22.5541C130.188 23.1676 130.14 23.7572 130.072 24.2821L133.579 26.8043C135.004 27.8302 135.42 29.7525 134.54 31.276L131.827 35.9795C130.948 37.4996 129.084 38.1097 127.475 37.3838L123.494 35.5876C122.563 36.2692 121.578 36.8418 120.546 37.302L120.109 41.6374C119.936 43.3858 118.477 44.7049 116.718 44.7049V44.7049ZM104.748 31.9066C105.14 31.9066 105.529 32.0429 105.842 32.3053C106.998 33.2733 108.276 34.0129 109.636 34.5105C110.249 34.7355 110.682 35.291 110.747 35.942L111.285 41.2965H116.722L117.257 35.942C117.321 35.291 117.754 34.7355 118.368 34.5105C119.728 34.0129 121.006 33.2699 122.161 32.3053C122.666 31.8861 123.361 31.7907 123.954 32.0599L128.876 34.2822L131.592 29.5753L127.236 26.4464C126.705 26.0647 126.442 25.4103 126.551 24.7661C126.677 24.0469 126.78 23.3141 126.78 22.5575C126.78 21.8008 126.677 21.0681 126.551 20.3489C126.439 19.7047 126.705 19.0537 127.236 18.6686L131.592 15.5397L128.876 10.8328L123.954 13.0516C123.358 13.3209 122.662 13.2255 122.158 12.8062C121.006 11.8383 119.731 11.0987 118.364 10.6011C117.751 10.3761 117.318 9.82054 117.253 9.16955L116.718 3.80483H111.282L110.747 9.15932C110.682 9.81032 110.249 10.3659 109.636 10.5908C108.276 11.0884 106.998 11.8315 105.842 12.796C105.341 13.2152 104.646 13.3141 104.049 13.0414L99.1277 10.8192L96.4113 15.5261L100.767 18.6549C101.299 19.0367 101.561 19.6911 101.452 20.3353C101.326 21.0544 101.224 21.7872 101.224 22.5439C101.224 23.3005 101.326 24.0333 101.452 24.7525C101.565 25.3966 101.299 26.0476 100.767 26.4328L96.4113 29.5616L99.1277 34.2685L104.049 32.0497C104.274 31.9543 104.509 31.9066 104.748 31.9066V31.9066Z" fill="white"/>
<path d="M144.001 65.4478C140.87 65.4478 138.32 62.8984 138.32 59.7672C138.32 56.6361 140.87 54.0867 144.001 54.0867C147.132 54.0867 149.681 56.6361 149.681 59.7672C149.681 62.8984 147.132 65.4478 144.001 65.4478ZM144.001 56.3589C142.122 56.3589 140.593 57.8881 140.593 59.7672C140.593 61.6464 142.122 63.1756 144.001 63.1756C145.88 63.1756 147.409 61.6464 147.409 59.7672C147.409 57.8881 145.88 56.3589 144.001 56.3589Z" fill="white"/>
<path d="M145.812 74.5366H142.188C141.015 74.5366 140.043 73.6573 139.927 72.4894L139.638 69.6014C138.95 69.2946 138.293 68.9129 137.673 68.4584L135.019 69.6559C133.953 70.1422 132.701 69.7354 132.117 68.7197L130.306 65.5818C129.72 64.5661 129.997 63.2846 130.947 62.6006L133.285 60.9192C133.24 60.567 133.208 60.1762 133.208 59.7672C133.208 59.3582 133.24 58.9651 133.285 58.6152L130.947 56.9337C129.997 56.2498 129.72 54.9682 130.306 53.9526L132.117 50.8146C132.704 49.7989 133.949 49.3968 135.019 49.8785L137.673 51.0759C138.293 50.6215 138.95 50.2397 139.638 49.933L139.927 47.045C140.043 45.8793 141.015 45 142.188 45H145.812C146.985 45 147.957 45.8794 148.073 47.0473L148.362 49.9353C149.052 50.242 149.709 50.626 150.327 51.0782L152.981 49.8807C154.051 49.4013 155.299 49.8035 155.883 50.8169L157.694 53.9548C158.28 54.9705 158.003 56.2521 157.053 56.936L154.715 58.6174C154.76 58.9696 154.792 59.3605 154.792 59.7695C154.792 60.1785 154.76 60.5715 154.715 60.9215L157.053 62.6029C158.003 63.2869 158.28 64.5684 157.694 65.5841L155.885 68.7197C155.299 69.7332 154.056 70.1399 152.983 69.6559L150.329 68.4584C149.709 68.9129 149.052 69.2946 148.364 69.6014L148.073 72.4916C147.957 73.6573 146.985 74.5366 145.812 74.5366V74.5366ZM137.832 66.0044C138.093 66.0044 138.352 66.0953 138.561 66.2703C139.332 66.9156 140.184 67.4087 141.09 67.7404C141.499 67.8904 141.788 68.2608 141.831 68.6947L142.19 72.2644H145.814L146.171 68.6947C146.214 68.2608 146.503 67.8904 146.912 67.7404C147.818 67.4087 148.671 66.9133 149.441 66.2703C149.777 65.9908 150.241 65.9272 150.636 66.1067L153.917 67.5882L155.728 64.4502L152.824 62.3643C152.47 62.1098 152.295 61.6736 152.367 61.2441C152.452 60.7647 152.52 60.2762 152.52 59.7717C152.52 59.2673 152.452 58.7788 152.367 58.2993C152.292 57.8699 152.47 57.4359 152.824 57.1791L155.728 55.0932L153.917 51.9553L150.636 53.4345C150.238 53.614 149.775 53.5504 149.439 53.2709C148.671 52.6256 147.821 52.1325 146.91 51.8008C146.501 51.6508 146.212 51.2804 146.169 50.8464L145.812 47.27H142.188L141.831 50.8396C141.788 51.2736 141.499 51.644 141.09 51.7939C140.184 52.1257 139.332 52.621 138.561 53.2641C138.227 53.5436 137.764 53.6095 137.366 53.4277L134.085 51.9462L132.274 55.0841L135.178 57.17C135.533 57.4245 135.708 57.8608 135.635 58.2902C135.551 58.7697 135.483 59.2582 135.483 59.7626C135.483 60.2671 135.551 60.7556 135.635 61.235C135.71 61.6645 135.533 62.0985 135.178 62.3552L132.274 64.4411L134.085 67.5791L137.366 66.0999C137.516 66.0362 137.673 66.0044 137.832 66.0044V66.0044Z" fill="white"/>
<path d="M115.561 67.1879C105.842 55.1023 93.5854 47.4977 79.1356 44.5803C53.6234 39.4327 32.0028 46.8749 14.8728 66.6971C6.90343 75.9162 2.05411 87.1421 0.456846 100.06C0.406086 100.456 0.385775 100.862 0.365471 101.255C0.368903 102.059 0.245568 102.858 0 103.624V112.552L0.233499 114.224C0.402701 115.415 0.571899 116.593 0.747868 117.794C1.93961 125.829 4.66102 133.561 8.76464 140.571C14.548 150.47 22.3617 158.349 31.9825 163.998C39.6714 168.539 48.2129 171.449 57.0751 172.547C57.4744 172.594 57.8805 172.611 58.273 172.628C59.0784 172.612 59.8802 172.738 60.6419 173H60.7062H69.3388L71.0309 172.77C72.2931 172.597 73.5587 172.431 74.821 172.245C84.2943 170.841 93.3311 167.326 101.264 161.96C111 155.466 118.58 146.632 123.795 135.735C127.152 128.756 129.181 121.214 129.781 113.493C131.118 96.158 126.329 80.5764 115.561 67.1879ZM48.3951 73.9566C50.564 71.788 53.1394 70.0685 55.9737 68.8966C58.8079 67.7246 61.8455 67.1233 64.9125 67.127H65.1325C78.276 67.2488 88.5669 77.6185 88.5601 90.7092C88.5727 93.7889 87.974 96.8404 86.7989 99.687C85.6238 102.534 83.8955 105.119 81.7142 107.293C79.5174 109.485 76.9084 111.221 74.0374 112.4C71.1665 113.579 68.0905 114.178 64.987 114.163H64.9362C51.7622 114.136 41.4409 103.769 41.4409 90.5637C41.4371 87.4726 42.0503 84.4119 43.2445 81.5608C44.4386 78.7097 46.1896 76.1256 48.3951 73.96V73.9566ZM19.58 146.484C24.4361 131.376 34.4258 120.867 49.2715 115.246C49.5911 115.109 49.939 115.05 50.2858 115.076C50.6327 115.101 50.9684 115.209 51.2647 115.391C60.3745 120.204 69.6197 120.204 78.7431 115.391C79.0173 115.214 79.3295 115.105 79.6542 115.072C79.979 115.039 80.3069 115.084 80.611 115.202C95.5008 120.773 105.538 131.291 110.431 146.47C110.537 146.724 110.563 147.004 110.505 147.273C110.448 147.542 110.31 147.787 110.11 147.976C100.563 158.593 88.5804 165.186 74.4927 167.568C71.175 168.073 67.825 168.336 64.4692 168.357C46.7741 167.954 31.7794 161.084 19.9015 147.986C19.696 147.802 19.5542 147.557 19.4965 147.287C19.4387 147.017 19.468 146.736 19.58 146.484V146.484ZM84.9358 110.721C85.5517 110.044 86.1304 109.415 86.6888 108.741C91.2572 103.255 93.4568 96.7706 93.2707 89.4502C92.9763 78.803 85.5483 68.3013 75.606 64.4838C68.5639 61.7763 61.0344 61.7526 54.3983 64.4093C47.7622 67.066 42.3579 72.3118 39.2751 79.1414C34.7337 89.2167 35.952 99.0009 42.8994 108.223C43.5897 109.142 44.3634 109.995 45.2107 110.772C45.3359 110.887 45.7183 111.239 45.6844 111.428C45.6506 111.618 45.1667 111.817 45.0076 111.882C39.8285 114.003 35.0414 116.977 30.8455 120.681C24.261 126.392 19.2235 133.672 16.1994 141.847L16.1621 141.948C16.0742 142.185 15.9862 142.426 15.888 142.652C15.8667 142.674 15.8429 142.694 15.817 142.71C-2.08118 117.865 1.79693 83.6223 24.876 63.015C36.4833 52.6487 50.7943 47.5315 65.0513 47.5315C81.166 47.5315 97.1996 54.0735 109.169 66.9713C131.317 90.8547 128.275 123.703 114.164 142.642C108.685 128.09 98.6175 117.598 84.2353 111.489L84.9358 110.721Z" fill="white"/>
</svg>
